HIERARCHY
ROOT Hips
{
  OFFSET 0 89.5177 0.535
  CHANNELS 6 Xposition Yposition Zposition Zrotation Xrotation Yrotation
  JOINT Spine
  {
    OFFSET 12.0259 -0.162855 1.69034e-005
    CHANNELS 3 Zrotation Xrotation Yrotation
    JOINT Spine1
    {
      OFFSET 15.3169 -0.0121922 0
      CHANNELS 3 Zrotation Xrotation Yrotation
      JOINT Spine2
      {
        OFFSET 15.3176 -0.0121908 0
        CHANNELS 3 Zrotation Xrotation Yrotation
        JOINT Neck
        {
          OFFSET 19.9142 1.56338 0
          CHANNELS 3 Zrotation Xrotation Yrotation
          JOINT Head
          {
            OFFSET 6.92651 0 0
            CHANNELS 3 Zrotation Xrotation Yrotation
            End Site
            {
              OFFSET 20.7666 0 0
            }
          }
          JOINT LeftShoulder
          {
            OFFSET -6.20654 0.708824 7.28219
            CHANNELS 3 Zrotation Xrotation Yrotation
            JOINT LeftArm
            {
              OFFSET 14.108 0 -1.52588e-005
              CHANNELS 3 Zrotation Xrotation Yrotation
              JOINT LeftForeArm
              {
                OFFSET 28.5802 0 0
                CHANNELS 3 Zrotation Xrotation Yrotation
                JOINT LeftHand
                {
                  OFFSET 27.092 0 0
                  CHANNELS 3 Zrotation Xrotation Yrotation
                  End Site
                  {
                    OFFSET 9.55928 -0.186424 0.145352
                  }
                }
              }
            }
          }
          JOINT RightShoulder
          {
            OFFSET -6.20654 0.708866 -7.28218
            CHANNELS 3 Zrotation Xrotation Yrotation
            JOINT RightArm
            {
              OFFSET 14.108 0 1.52588e-005
              CHANNELS 3 Zrotation Xrotation Yrotation
              JOINT RightForeArm
              {
                OFFSET 28.5802 0 0
                CHANNELS 3 Zrotation Xrotation Yrotation
                JOINT RightHand
                {
                  OFFSET 27.092 0 0
                  CHANNELS 3 Zrotation Xrotation Yrotation
                  End Site
                  {
                    OFFSET 9.55929 -0.186417 -0.145354
                  }
                }
              }
            }
          }
        }
      }
    }
  }
  JOINT LeftUpLeg
  {
    OFFSET 0.005 -0.535 8.837
    CHANNELS 3 Zrotation Xrotation Yrotation
    JOINT LeftLeg
    {
      OFFSET 39.9035 0 0
      CHANNELS 3 Zrotation Xrotation Yrotation
      JOINT LeftFoot
      {
        OFFSET 39.6689 0 0
        CHANNELS 3 Zrotation Xrotation Yrotation
        JOINT LeftToe
        {
          OFFSET 10.1624 13.6296 0
          CHANNELS 3 Zrotation Xrotation Yrotation
          End Site
          {
            OFFSET 8.38147 0 0
          }
        }
      }
    }
  }
  JOINT RightUpLeg
  {
    OFFSET 0.005 -0.535 -8.837
    CHANNELS 3 Zrotation Xrotation Yrotation
    JOINT RightLeg
    {
      OFFSET 39.9035 0 0
      CHANNELS 3 Zrotation Xrotation Yrotation
      JOINT RightFoot
      {
        OFFSET 39.6689 0 0
        CHANNELS 3 Zrotation Xrotation Yrotation
        JOINT RightToe
        {
          OFFSET 10.1624 13.6296 0
          CHANNELS 3 Zrotation Xrotation Yrotation
          End Site
          {
            OFFSET 8.38147 0 0
          }
        }
      }
    }
  }
}
MOTION
Frames:	11
Frame Time:	0.0333333
536.734 83.6945 -193.776 121.087 -48.5355 27.9547 1.16575 -0.25863 -2.6644 2.31828 -0.570642 -5.32294 2.31828 -0.570642 -5.32295 -8.30748e-012 -9.0191e-006 -5.27751e-005 14.2776 55.1535 -27.4453 -177.795 -6.75408 -71.8682 -27.4368 20.5003 57.1886 -72.368 1.59028e-015 7.95139e-016 -23.1891 -53.8804 -18.3921 -178.521 5.89996 75.9022 50.8176 3.12257 -49.3782 -48.2379 2.98177e-015 -1.19271e-015 -104.369 77.8195 102.168 -26.9002 4.10467 -171.109 -32.6946 -3.18055e-015 -3.18055e-015 25.407 -0.288659 -5.81068 90 -1.59028e-015 6.36111e-015 -50.6705 -14.6989 156.149 -29.4484 -4.77083e-015 -2.88238e-015 1.36501 -5.00893 10.2012 90 -3.63986e-020 -0 
536.097 84.4808 -193.891 123.587 -51.0126 27.9862 0.534017 -0.700003 -2.3141 1.03946 -1.4205 -4.62194 1.03946 -1.4205 -4.62195 -8.3043e-012 -9.0191e-006 -5.27751e-005 18.2003 58.5803 -29.407 -177.214 -8.61646 -72.0072 -25.0336 18.7831 56.6425 -69.0682 0 -2.38542e-015 -24.7777 -54.4027 -20.1666 -178.11 7.14648 75.1452 51.9196 -1.54524 -51.498 -44.009 7.95139e-016 6.36111e-015 -112.288 77.1827 111.007 -26.2794 6.98224 -168.103 -30.8383 3.18055e-015 -0 24.1517 0.91296 -7.78621 90 -1.19271e-015 6.36111e-015 -46.2024 -14.4848 162.445 -31.4189 0 4.17448e-015 6.99952 -4.32746 9.07113 90 2.57823e-020 3.18055e-015 
535.12 85.2027 -194.189 123.391 -54.6582 27.8434 0.318422 -1.20296 -2.29823 0.588537 -2.41723 -4.5911 0.588537 -2.41723 -4.59111 -8.30271e-012 -9.0191e-006 -5.27751e-005 22.6727 61.9875 -32.1347 -176.615 -10.6829 -72.3034 -22.5473 16.9381 56.659 -65.2243 2.38542e-015 -7.95139e-016 -26.3642 -51.6077 -21.074 -177.76 8.25036 74.7525 51.6301 -5.2186 -53.1783 -38.3291 -1.59028e-015 1.0635e-014 -121.247 75.0436 120.065 -22.2946 9.96603 -167.396 -27.9819 0 -0 22.8077 1.3285 -8.54133 90 0 6.36111e-015 -41.1397 -14.6325 165.679 -30.0668 1.59028e-015 5.96354e-016 8.47057 -3.86042 8.12325 90 1.06162e-020 -0 
534.071 85.7158 -194.692 124.414 -60.2335 29.4442 0.0642555 -1.41624 -2.29169 0.0718396 -2.83344 -4.58372 0.0718394 -2.83344 -4.58373 -8.31225e-012 -9.0191e-006 -5.27751e-005 30.031 64.5968 -37.1916 -176.053 -12.2685 -72.0093 -18.8434 15.4911 57.0953 -61.4184 -7.95139e-016 1.19271e-015 -27.3685 -49.9504 -20.9997 -177.535 8.97788 74.5795 50.5379 -8.3138 -53.5124 -33.5121 -6.36111e-015 2.38542e-015 -126.767 73.8214 126.26 -16.9117 14.4195 -167.22 -24.378 6.36111e-015 -3.18055e-015 21.8179 1.68398 -9.22446 90 0 3.18055e-015 -36.5885 -12.5988 168.323 -26.9877 -4.77083e-015 -2.98177e-016 7.26462 -3.9008 7.86253 90 -2.12325e-020 1.59028e-015 
533.281 85.7623 -194.967 127.91 -65.7041 32.8294 -0.317616 -1.65957 -2.07351 -0.695544 -3.30606 -4.15863 -0.695544 -3.30606 -4.15864 -8.30907e-012 -9.0191e-006 -5.27751e-005 38.8651 66.2753 -44.3377 -175.444 -13.8284 -71.56 -15.3989 14.7447 57.5352 -58.6594 1.19271e-015 3.97569e-016 -26.1902 -49.8166 -20.0387 -177.478 9.54005 75.118 50.427 -10.0412 -53.532 -29.895 -9.54166e-015 1.59028e-015 -126.173 73.7568 125.894 -12.7005 16.2825 -166.976 -22.7802 0 -0 22.4506 1.63647 -9.17075 90 0 9.54166e-015 -34.0428 -9.52444 170.768 -24.827 4.77083e-015 2.5842e-015 5.77781 -4.76605 8.00153 90 0 1.59028e-015 
532.8 85.2951 -194.913 132.01 -70.1407 36.6748 -0.602903 -2.00313 -1.79735 -1.26955 -3.98576 -3.61882 -1.26956 -3.98576 -3.61883 -8.30669e-012 -9.0191e-006 -5.27751e-005 45.1447 67.5508 -49.5009 -175.162 -14.822 -71.6937 -13.013 14.4875 58.0421 -56.7264 -2.48481e-017 -1.2424e-017 -23.3419 -52.1531 -18.6802 -177.422 9.954 75.3994 52.0368 -10.5122 -53.0663 -28.3568 -6.36111e-015 -6.36111e-015 -124.229 74.9947 124.258 -9.52259 14.6371 -166.89 -23.5505 -1.27222e-014 -3.18055e-015 24.8656 1.12191 -8.08286 90 -3.97569e-016 6.36111e-015 -33.8434 -7.43251 172.399 -25.8915 0 1.2424e-015 5.69984 -6.84227 8.0101 90 -1.7441e-020 4.77083e-015 
532.38 84.5219 -194.812 136.625 -74.7147 41.5491 -0.617728 -2.25836 -1.63306 -1.30116 -4.49757 -3.29404 -1.30116 -4.49757 -3.29405 -8.30907e-012 -9.0191e-006 -5.27751e-005 47.0949 68.6961 -51.4509 -175.148 -15.1951 -72.0548 -11.5711 14.694 58.2225 -56.1485 1.59028e-015 -0 -24.6386 -55.6491 -21.9735 -177.303 10.3669 75.3288 52.7483 -11.1364 -52.6543 -28.4136 3.18055e-015 -6.36111e-015 -123.091 75.15 123.472 -5.56823 12.9519 -167.543 -24.143 -3.18055e-015 -0 27.8008 0.496207 -6.56169 90 -1.19271e-015 -3.18055e-015 -34.6067 -5.99495 173.423 -29.2584 7.95139e-016 1.04362e-015 6.47347 -9.13898 7.67434 90 -2.12325e-020 1.59028e-015 
532.008 83.7093 -194.606 147.78 -79.5536 53.3693 -0.51543 -2.27781 -1.48681 -1.09116 -4.54089 -2.99743 -1.09116 -4.54089 -2.99744 -8.30589e-012 -9.0191e-006 -5.27751e-005 48.7345 69.4861 -53.4253 -175.054 -15.0078 -71.5204 -9.82673 14.4697 57.5396 -56.2731 3.97569e-015 3.18055e-015 -29.2265 -58.5843 -26.3607 -177.178 10.5099 74.8784 53.3053 -10.7601 -52.4832 -29.0472 -6.36111e-015 3.18055e-015 -123.333 74.7835 124.008 -1.68941 13.9166 -168.687 -24.0675 -1.59028e-015 -0 30.0589 0.569233 -6.26926 90 6.95746e-016 3.18055e-015 -36.2286 -4.64347 174.434 -34.0998 -7.95139e-016 -1.25483e-015 9.71533 -10.9308 7.26068 90 0 -1.59028e-015 
531.72 82.9773 -194.041 167.546 -82.7011 73.5102 -0.569805 -2.30462 -1.27018 -1.19207 -4.59543 -2.56619 -1.19207 -4.59543 -2.5662 -8.30907e-012 -9.0191e-006 -5.27751e-005 51.3665 69.1647 -55.2932 -174.965 -15.1014 -71.3158 -9.31581 14.4147 57.5649 -55.516 -1.59028e-015 -7.95139e-016 -31.3405 -56.6935 -27.4027 -177.061 10.7377 74.5934 54.512 -9.50675 -52.3238 -29.8694 -3.18055e-015 3.18055e-015 -120.827 74.7164 121.852 0.567914 14.1546 -169.817 -25.1096 -1.59028e-015 -0 32.5955 0.0659687 -4.73757 90 1.09332e-015 1.59028e-015 -37.4141 -3.11083 175.403 -37.1284 0 1.68967e-015 11.4528 -12.2888 7.25377 90 0 -1.59028e-015 
531.322 82.6319 -193.324 177.872 -84.0836 84.7811 -0.53487 -2.44764 -1.27461 -1.12568 -4.88219 -2.5754 -1.12568 -4.88219 -2.57541 -8.30589e-012 -9.0191e-006 -5.27751e-005 49.2407 69.1311 -53.7107 -175.23 -14.9328 -72.0563 -10.2915 14.1319 58.4285 -54.737 0 -1.59028e-015 -30.8774 -52.8362 -26.0274 -176.843 10.7839 73.5757 57.678 -7.42457 -52.7624 -32.89 -9.54166e-015 1.59028e-014 -119.986 74.4089 121.674 0.962455 14.4295 -171.138 -27.1036 -1.59028e-015 -1.59028e-015 33.8047 -0.287325 -3.75923 90 -2.48481e-016 -0 -37.9142 -3.45399 174.267 -38.0954 7.95139e-016 2.98177e-016 11.1256 -12.4467 7.15045 90 -9.93923e-017 -1.59028e-015 
531.031 82.679 -192.496 178.017 -84.8861 85.5651 -0.429547 -2.4421 -1.33093 -0.917042 -4.87301 -2.68364 -0.917043 -4.87301 -2.68365 -8.30828e-012 -9.0191e-006 -5.27751e-005 43.1685 69.0655 -48.1637 -175.745 -13.6662 -72.5205 -10.7739 14.2573 58.7754 -55.1362 0 -3.18055e-015 -30.4102 -50.4409 -24.8889 -176.863 10.308 72.973 59.9449 -6.40746 -54.0182 -36.4339 6.36111e-015 -3.18055e-015 -115.837 73.4876 117.177 1.36073 14.27 -171.967 -27.2229 -1.59028e-015 -0 33.6552 -0.1183 -3.86167 90 -1.44119e-015 -0 -37.5075 -6.75502 172.122 -35.6241 0 1.98785e-015 6.31425 -9.89935 5.97044 90 -6.21202e-018 -9.93923e-017 
